<svg width="399" height="257" viewBox="0 0 399 257" fill="none" xmlns="http://www.w3.org/2000/svg">
<g filter="url(#filter0_b_1_21)">
<rect width="399" height="257" fill="#1F5CA5"/>
<g filter="url(#filter1_f_1_21)">
<path fill-rule="evenodd" clip-rule="evenodd" d="M247.355 93.01C248.632 93.0581 249.938 93.3241 250.841 94.2649C251.744 95.2055 251.801 96.5867 252.044 97.8922C252.384 99.7247 253.703 101.862 252.511 103.256C251.323 104.645 249.109 103.729 247.355 103.374C246.024 103.105 244.844 102.498 243.878 101.509C242.903 100.51 242.055 99.3151 242.003 97.8922C241.95 96.4235 242.544 94.9613 243.606 93.9923C244.613 93.0734 246.016 92.9595 247.355 93.01Z" fill="#FAFAFA" fill-opacity="0.7"/>
</g>
<g filter="url(#filter2_f_1_21)">
<path fill-rule="evenodd" clip-rule="evenodd" d="M31.5665 51.0213C34.8877 50.8834 38.2128 51.3874 40.8591 53.3816C43.9203 55.6884 46.5445 58.8005 46.9236 62.5939C47.3346 66.7058 46.1005 71.1816 42.9031 73.8324C39.8631 76.3527 35.3721 76.4214 31.5665 75.3255C28.5433 74.4549 27.5286 71.0102 25.3337 68.7729C23.1999 66.5979 19.5496 65.5914 19.0765 62.5939C18.5722 59.3995 20.6384 56.3301 23.0212 54.1224C25.3249 51.9878 28.416 51.1521 31.5665 51.0213Z" fill="#FFC0CB" fill-opacity="0.7"/>
</g>
<g filter="url(#filter3_f_1_21)">
<path fill-rule="evenodd" clip-rule="evenodd" d="M376.008 144.227C377.464 144.645 378.492 145.69 379.635 146.697C380.927 147.834 382.83 148.645 382.989 150.373C383.153 152.153 381.501 153.423 380.382 154.806C379.059 156.441 378.094 159.007 376.008 159C373.921 158.993 372.767 156.57 371.663 154.776C370.848 153.449 371.002 151.905 370.702 150.373C370.257 148.098 368.006 145.535 369.513 143.79C370.998 142.069 373.837 143.604 376.008 144.227Z" fill="#FFC0CB" fill-opacity="0.7"/>
</g>
<g filter="url(#filter4_f_1_21)">
<path fill-rule="evenodd" clip-rule="evenodd" d="M38.8369 186.135C41.3248 185.997 44.1809 183.968 46.0137 185.688C47.8434 187.405 46.6624 190.52 46.1538 193C45.7728 194.859 44.7262 196.327 43.5336 197.786C42.1526 199.475 40.9759 201.662 38.8369 201.952C36.5405 202.264 34.2326 201.024 32.6971 199.256C31.2377 197.576 31.1129 195.243 31.0606 193C31.0065 190.679 30.6762 187.961 32.3983 186.44C34.0863 184.95 36.6067 186.258 38.8369 186.135Z" fill="#FFC0CB" fill-opacity="0.7"/>
</g>
<g filter="url(#filter5_f_1_21)">
<path fill-rule="evenodd" clip-rule="evenodd" d="M105.663 187.082C110.738 187.346 116.389 185.154 120.266 188.43C124.286 191.825 123.99 197.761 124.493 202.99C125.08 209.09 128.142 216.782 123.366 220.64C118.554 224.527 111.814 218.918 105.663 218.201C100.827 217.637 95.0498 220.437 91.6673 216.944C88.2937 213.461 91.2862 207.819 90.9312 202.99C90.5189 197.381 85.627 190.959 89.4534 186.828C93.2644 182.713 100.053 186.791 105.663 187.082Z" fill="#FAFAFA" fill-opacity="0.7"/>
</g>
<g filter="url(#filter6_f_1_21)">
<path fill-rule="evenodd" clip-rule="evenodd" d="M335.492 196.51C341.37 196.047 347.679 193.26 352.506 196.677C357.78 200.409 360.164 207.349 359.991 213.848C359.822 220.199 356.429 226.024 351.615 230.12C347.178 233.896 341.196 235.78 335.492 234.697C330.506 233.75 328.472 228.12 324.475 224.966C319.307 220.886 309.972 220.407 309.074 213.848C308.184 207.343 315.488 202.744 320.943 199.164C325.238 196.345 330.384 196.912 335.492 196.51Z" fill="#FEDC63" fill-opacity="0.7"/>
</g>
<g filter="url(#filter7_f_1_21)">
<path fill-rule="evenodd" clip-rule="evenodd" d="M354.45 88.4691C360.529 87.0714 367.556 81.3503 372.202 85.4622C376.794 89.5268 371.183 96.8981 370.839 102.975C370.531 108.395 373.577 114.257 370.32 118.631C366.806 123.349 360.381 124.778 354.45 124.981C348.281 125.191 342.146 123.699 337.443 119.754C332.336 115.469 326.825 109.445 328.22 102.975C329.574 96.6958 337.733 95.2217 343.41 92.0827C346.926 90.1382 350.525 89.3717 354.45 88.4691Z" fill="#FEDC63" fill-opacity="0.7"/>
</g>
<g filter="url(#filter8_f_1_21)">
<path fill-rule="evenodd" clip-rule="evenodd" d="M63.0517 106.075C68.0705 106.202 73.3941 106.801 76.8657 110.354C80.2858 113.855 80.177 119.05 80.4561 123.887C80.761 129.171 82.2329 135.197 78.521 139.042C74.7721 142.925 68.0367 144.089 63.0517 141.917C58.6809 140.012 59.9354 133.49 57.1082 129.71C55.1421 127.081 50.8567 126.892 49.5687 123.887C47.6119 119.322 45.4935 113.613 48.5042 109.636C51.5992 105.547 57.8575 105.943 63.0517 106.075Z" fill="#FEDC63" fill-opacity="0.7"/>
</g>
</g>
<defs>
<filter id="filter0_b_1_21" x="-4" y="-4" width="407" height="265" filterUnits="userSpaceOnUse" color-interpolation-filters="sRGB">
<feFlood flood-opacity="0" result="BackgroundImageFix"/>
<feGaussianBlur in="BackgroundImage" stdDeviation="2"/>
<feComposite in2="SourceAlpha" operator="in" result="effect1_backgroundBlur_1_21"/>
<feBlend mode="normal" in="SourceGraphic" in2="effect1_backgroundBlur_1_21" result="shape"/>
</filter>
<filter id="filter1_f_1_21" x="237" y="88" width="21" height="21" filterUnits="userSpaceOnUse" color-interpolation-filters="sRGB">
<feFlood flood-opacity="0" result="BackgroundImageFix"/>
<feBlend mode="normal" in="SourceGraphic" in2="BackgroundImageFix" result="shape"/>
<feGaussianBlur stdDeviation="2.5" result="effect1_foregroundBlur_1_21"/>
</filter>
<filter id="filter2_f_1_21" x="14" y="46" width="38" height="35" filterUnits="userSpaceOnUse" color-interpolation-filters="sRGB">
<feFlood flood-opacity="0" result="BackgroundImageFix"/>
<feBlend mode="normal" in="SourceGraphic" in2="BackgroundImageFix" result="shape"/>
<feGaussianBlur stdDeviation="2.5" result="effect1_foregroundBlur_1_21"/>
</filter>
<filter id="filter3_f_1_21" x="364" y="138" width="24" height="26" filterUnits="userSpaceOnUse" color-interpolation-filters="sRGB">
<feFlood flood-opacity="0" result="BackgroundImageFix"/>
<feBlend mode="normal" in="SourceGraphic" in2="BackgroundImageFix" result="shape"/>
<feGaussianBlur stdDeviation="2.5" result="effect1_foregroundBlur_1_21"/>
</filter>
<filter id="filter4_f_1_21" x="26" y="180" width="26" height="27" filterUnits="userSpaceOnUse" color-interpolation-filters="sRGB">
<feFlood flood-opacity="0" result="BackgroundImageFix"/>
<feBlend mode="normal" in="SourceGraphic" in2="BackgroundImageFix" result="shape"/>
<feGaussianBlur stdDeviation="2.5" result="effect1_foregroundBlur_1_21"/>
</filter>
<filter id="filter5_f_1_21" x="83" y="180" width="48" height="47" filterUnits="userSpaceOnUse" color-interpolation-filters="sRGB">
<feFlood flood-opacity="0" result="BackgroundImageFix"/>
<feBlend mode="normal" in="SourceGraphic" in2="BackgroundImageFix" result="shape"/>
<feGaussianBlur stdDeviation="2.5" result="effect1_foregroundBlur_1_21"/>
</filter>
<filter id="filter6_f_1_21" x="304" y="190" width="61" height="50" filterUnits="userSpaceOnUse" color-interpolation-filters="sRGB">
<feFlood flood-opacity="0" result="BackgroundImageFix"/>
<feBlend mode="normal" in="SourceGraphic" in2="BackgroundImageFix" result="shape"/>
<feGaussianBlur stdDeviation="2.5" result="effect1_foregroundBlur_1_21"/>
</filter>
<filter id="filter7_f_1_21" x="323" y="79" width="56" height="51" filterUnits="userSpaceOnUse" color-interpolation-filters="sRGB">
<feFlood flood-opacity="0" result="BackgroundImageFix"/>
<feBlend mode="normal" in="SourceGraphic" in2="BackgroundImageFix" result="shape"/>
<feGaussianBlur stdDeviation="2.5" result="effect1_foregroundBlur_1_21"/>
</filter>
<filter id="filter8_f_1_21" x="42" y="101" width="44" height="47" filterUnits="userSpaceOnUse" color-interpolation-filters="sRGB">
<feFlood flood-opacity="0" result="BackgroundImageFix"/>
<feBlend mode="normal" in="SourceGraphic" in2="BackgroundImageFix" result="shape"/>
<feGaussianBlur stdDeviation="2.5" result="effect1_foregroundBlur_1_21"/>
</filter>
</defs>
</svg>
