<svg width="50" height="50" viewBox="0 0 50 50" fill="none" xmlns="http://www.w3.org/2000/svg">
<g clip-path="url(#clip0_7_2)">
<path d="M33.4062 0C32.8555 0.0507813 32.4492 0.542969 32.5 1.09375C32.5508 1.64453 33.043 2.05078 33.5938 2H46.5625L25.6875 22.9062C25.3906 23.1484 25.2539 23.5352 25.3398 23.9102C25.4258 24.2813 25.7187 24.5742 26.0898 24.6602C26.4648 24.7461 26.8516 24.6094 27.0938 24.3125L48 3.4375V16.4062C47.9961 16.7656 48.1836 17.1016 48.4961 17.2852C48.8086 17.4648 49.1914 17.4648 49.5039 17.2852C49.8164 17.1016 50.0039 16.7656 50 16.4062V0H33.5938C33.5625 0 33.5312 0 33.5 0C33.4688 0 33.4375 0 33.4062 0ZM2 10C1.47656 10 0.941406 10.1836 0.5625 10.5625C0.183594 10.9414 0 11.4766 0 12V48C0 48.5234 0.183594 49.0586 0.5625 49.4375C0.941406 49.8164 1.47656 50 2 50H38C38.5234 50 39.0586 49.8164 39.4375 49.4375C39.8164 49.0586 40 48.5234 40 48V18C40.0039 17.6406 39.8164 17.3047 39.5039 17.1211C39.1914 16.9414 38.8086 16.9414 38.4961 17.1211C38.1836 17.3047 37.9961 17.6406 38 18V48H2V12H32C32.3594 12.0039 32.6953 11.8164 32.8789 11.5039C33.0586 11.1914 33.0586 10.8086 32.8789 10.4961C32.6953 10.1836 32.3594 9.99609 32 10H2Z" fill="white"/>
</g>
<defs>
<clipPath id="clip0_7_2">
<rect width="50" height="50" fill="white"/>
</clipPath>
</defs>
</svg>
