<?xml version="1.0" encoding="utf-8"?>
<!-- Generator: Adobe Illustrator 26.3.1, SVG Export Plug-In . SVG Version: 6.00 Build 0)  -->
<svg version="1.1" id="Слой_1" xmlns="http://www.w3.org/2000/svg" xmlns:xlink="http://www.w3.org/1999/xlink" x="0px" y="0px"
	 viewBox="0 0 668.7 283.5" style="enable-background:new 0 0 668.7 283.5;" xml:space="preserve">
<style type="text/css">
	.st0{display:none;fill-rule:evenodd;clip-rule:evenodd;fill:#FFFFFF;}
	.st1{fill-rule:evenodd;clip-rule:evenodd;fill:#FFFFFF;}
	.st2{fill-rule:evenodd;clip-rule:evenodd;fill:#CFE7FF;}
	.st3{fill-rule:evenodd;clip-rule:evenodd;fill:#9BC6FF;}
</style>
<rect class="st0" width="668.7" height="283.5"/>
<g>
	<path class="st1" d="M134.5,98.5v23.3H35.3c0-6.4,2.7-12.2,7.1-16.5s10.5-6.8,17.2-6.8H134.5z"/>
	<rect x="35.3" y="130.1" class="st2" width="99.2" height="23.3"/>
	<path class="st3" d="M134.5,161.6c0,6.4-2.7,12.2-7.1,16.5c-4.4,4.2-10.5,6.8-17.2,6.8H35.3v-23.3H134.5z"/>
</g>
<g>
	<path class="st1" d="M297.2,130v31.1c0,0.2,0,0.3,0,0.4c-0.2,12.8-10.8,23.3-23.7,23.3h-54.9c-12.9,0-23.4-8-23.5-23.3v-8.3h-7.7
		v31.6H156v-73l0-13.4h31.4V130h7.7v-7.9c0-0.1,0-0.3,0-0.4c0.2-12.9,10.8-23.3,23.7-23.3h54.7c12.9,0,23.5,10.4,23.7,23.3h-71v39.8
		h39.5V130H297.2z"/>
	<rect x="423.3" y="130" class="st1" width="31.5" height="54.9"/>
	<path class="st1" d="M509.5,98.5v23.3h-86.2v-1.7c0-11.9,9.7-21.6,21.6-21.6H509.5z"/>
	<path class="st1" d="M523,161.6h108.6c-0.2,12.9-10.8,23.4-23.7,23.4H523V161.6z"/>
	<path class="st1" d="M631.6,98.5v54.8h-31.5v0h-53.4c-12.9,0-23.5-10.4-23.7-23.2c0-0.1,0-0.3,0-0.5v-31h31.9V130h45.2V98.5H631.6z
		"/>
	<path class="st1" d="M408.7,160.6c0,12.7-9.8,23.1-22.2,24.2h0c-0.7,0.1-1.3,0.1-2,0.1h-71.6v-23.3h68.2v-0.1
		c1.9-0.4,3.3-2,3.3-4.1c0-2-1.4-3.7-3.3-4v-0.1h-42.9V130h68.1c-2.1,4.2-5.5,7.6-9.6,9.7c1.2,0.7,2.4,1.5,3.5,2.5
		c1.7,1.4,3.1,3.1,4.4,4.9C407.2,150.9,408.7,155.6,408.7,160.6z"/>
	<path class="st1" d="M408.2,121.8h-95.4V98.5h74c0.3,0,0.6,0,1,0C399.1,99.2,408.2,110.3,408.2,121.8z"/>
</g>
</svg>
