<svg width="51" height="51" viewBox="0 0 51 51" fill="none" xmlns="http://www.w3.org/2000/svg">
<rect width="29" height="22" transform="translate(10 15)" fill="white"/>
<path d="M25.5 4.25C13.8125 4.25 4.25 13.8125 4.25 25.5C4.25 37.1875 13.8125 46.75 25.5 46.75C37.1875 46.75 46.75 37.1875 46.75 25.5C46.75 13.8125 37.1875 4.25 25.5 4.25ZM35.9125 17.2125L32.3 34.6375C32.0875 35.9125 31.2375 36.125 30.3875 35.4875L24.8625 31.2375C23.5875 32.5125 22.3125 33.575 22.1 34C21.675 34.2125 21.4625 34.6375 21.0375 34.6375C20.4 34.6375 20.4 34.2125 20.1875 33.7875L18.275 27.4125L12.5375 25.5C11.2625 25.075 11.2625 24.225 12.75 23.5875L34.425 15.3C35.275 15.0875 36.3375 15.5125 35.9125 17.2125ZM30.8125 19.125L18.7 26.775L20.6125 33.15L21.0375 28.9L31.45 19.55C32.0875 18.9125 31.6625 18.9125 30.8125 19.125Z" fill="black"/>
</svg>
