<svg width="24" height="24" viewBox="0 0 24 24" fill="none" xmlns="http://www.w3.org/2000/svg">
<path d="M12 2C6.5 2 2 6.5 2 12C2 17.5 6.5 22 12 22C17.5 22 22 17.5 22 12C22 6.5 17.5 2 12 2ZM16.9 8.1L15.2 16.3C15.1 16.9 14.7 17 14.3 16.7L11.7 14.7C11.1 15.3 10.5 15.8 10.4 16C10.2 16.1 10.1 16.3 9.9 16.3C9.6 16.3 9.6 16.1 9.5 15.9L8.6 12.9L5.9 12C5.3 11.8 5.3 11.4 6 11.1L16.2 7.2C16.6 7.1 17.1 7.3 16.9 8.1ZM14.5 9L8.8 12.6L9.7 15.6L9.9 13.6L14.8 9.2C15.1 8.9 14.9 8.9 14.5 9Z" fill="#FFD959"/>
</svg>
