<svg xmlns="http://www.w3.org/2000/svg" width="400" height="400"><path fill="#0E538C" d="M279.538 245.491H120.31a5.684 5.684 0 0 1-5.686-5.686 5.685 5.685 0 0 1 5.686-5.688h159.229a5.685 5.685 0 0 1 5.686 5.688 5.686 5.686 0 0 1-5.687 5.686zm17.057 136.484c.564 0 1.139-.086 1.703-.268a5.68 5.68 0 0 0 3.721-7.13l-13.645-43.341c-.951-2.996-4.148-4.659-7.131-3.716a5.683 5.683 0 0 0-3.719 7.13l13.643 43.341a5.701 5.701 0 0 0 5.428 3.984z"/><path fill="#D3D3D3" d="m202.319 114.699 72.205 228.609c1.527 4.854 6.012 7.961 10.846 7.961 1.129 0 2.283-.17 3.418-.528 5.994-1.885 9.318-8.271 7.434-14.263L221.364 99.479l-19.045 15.22z"/><path fill="#0E538C" d="M103.405 381.975a5.574 5.574 0 0 1-1.705-.268 5.68 5.68 0 0 1-3.719-7.13l13.645-43.341c.949-2.996 4.148-4.659 7.129-3.716a5.68 5.68 0 0 1 3.721 7.13l-13.643 43.341a5.701 5.701 0 0 1-5.428 3.984z"/><path fill="#D3D3D3" d="m197.683 114.699-72.207 228.609c-1.527 4.854-6.012 7.961-10.848 7.961a11.36 11.36 0 0 1-3.416-.528c-5.992-1.885-9.318-8.271-7.434-14.263l74.855-236.999 19.05 15.22z"/><path fill="#0E538C" d="M200.079 69.205c-6.281 0-11.375-5.093-11.375-11.373V29.398c0-6.281 5.094-11.373 11.375-11.373s11.373 5.092 11.373 11.373v28.434c0 6.28-5.092 11.373-11.373 11.373z"/><path fill="#2A94F4" d="M211.452 46.459h-22.748c-9.406 0-17.059 7.65-17.059 17.061v28.434c0 15.676 12.756 28.432 28.434 28.432 15.676 0 28.432-12.756 28.432-28.432V63.52c0-9.411-7.651-17.061-17.059-17.061zm-1.42 216.094h-19.904a1.423 1.423 0 0 1-1.422-1.424V218.48c0-.787.637-1.422 1.422-1.422h19.904c.785 0 1.42.635 1.42 1.422v42.648c0 .786-.637 1.425-1.42 1.425z"/><path fill="#0B4870" d="M199.925 80.579c6.281 0 11.371 5.091 11.371 11.374 0 6.28-5.09 11.371-11.371 11.371-6.283 0-11.373-5.091-11.373-11.371 0-6.283 5.09-11.374 11.373-11.374z"/></svg>