<svg xmlns="http://www.w3.org/2000/svg" width="400" height="400"><path fill="#FFBE55" d="m234.194 62.09-30.03 45.039a5.006 5.006 0 0 1-5.617 2.018 5.011 5.011 0 0 1-3.554-4.788V77.416l-27.261-13.629a4.977 4.977 0 0 1-2.595-3.188 4.975 4.975 0 0 1 .67-4.063l30.03-45.037A5 5 0 0 1 205 14.275v26.933l27.268 13.631a5.004 5.004 0 0 1 1.926 7.251z"/><path fill="#0B4870" d="M248.354 172.921v87.046c0 26.663-21.696 48.349-48.359 48.349s-48.348-21.686-48.348-48.349v-87.046H69.814v87.046c0 58.088 39.061 109.627 94.999 125.351.486.135.984.226 1.481.261h.034c10.645 3.358 21.945 5.156 33.665 5.156 11.73 0 23.032-1.798 33.665-5.156h.033a7.524 7.524 0 0 0 1.482-.261c55.938-15.714 95.011-67.263 95.011-125.351v-87.046h-81.83z"/><path fill="#2A94F4" d="M151.646 128.293v44.628H69.814v-44.628a7.442 7.442 0 0 1 7.442-7.443h66.946a7.45 7.45 0 0 1 7.444 7.443zm178.54 0v44.628h-81.832v-44.628c0-4.105 3.326-7.443 7.433-7.443h66.956a7.45 7.45 0 0 1 7.443 7.443z"/></svg>