<svg xmlns="http://www.w3.org/2000/svg" width="400" height="400"><path fill="#D3D3D3" d="M319.082 261.276 243.76 226.51a5.666 5.666 0 0 1-2.771-7.52 5.666 5.666 0 0 1 7.519-2.773l75.322 34.764a5.667 5.667 0 0 1 2.773 7.521 5.67 5.67 0 0 1-5.151 3.291 5.675 5.675 0 0 1-2.37-.517zm-87.184-93.332a5.66 5.66 0 0 1 0-8.008l49.903-49.904a5.66 5.66 0 0 1 8.011 0 5.664 5.664 0 0 1 0 8.012l-49.904 49.904a5.637 5.637 0 0 1-4.005 1.658 5.629 5.629 0 0 1-4.005-1.662zm-72.119.004-71.88-71.877c-2.213-2.213-2.213-5.797 0-8.01s5.799-2.213 8.012 0l71.881 71.875a5.664 5.664 0 0 1-4.007 9.67 5.642 5.642 0 0 1-4.006-1.658zM58.884 340.962a5.663 5.663 0 0 1 0-8.012l100.9-100.902a5.666 5.666 0 0 1 8.013 0 5.663 5.663 0 0 1 0 8.012l-100.9 100.902c-1.106 1.107-2.557 1.658-4.007 1.658s-2.899-.551-4.006-1.658zm131.173-33.33a5.674 5.674 0 0 1-5.129-6.16l4.659-51.207c.286-3.111 2.987-5.4 6.157-5.131 3.115.281 5.411 3.043 5.129 6.158l-4.658 51.211a5.67 5.67 0 0 1-6.158 5.129z"/><circle cx="199.844" cy="200.001" r="56.659" fill="#FFBE55"/><circle cx="347.391" cy="267.913" r="33.917" fill="#2A94F4"/><circle cx="63.941" cy="63.94" r="45.249" fill="#2A94F4"/><circle cx="302.063" cy="98.093" r="28.251" fill="#0B4870"/><circle cx="47.099" cy="353.056" r="28.252" fill="#FFBE55"/><circle cx="188.59" cy="324.728" r="28.251" fill="#0B4870"/></svg>