<svg xmlns="http://www.w3.org/2000/svg" width="400" height="400"><path fill="#D3D3D3" d="m263.658 198.683-29.506-29.506-6.168-6.169-1.825-1.824-41.148-41.147c-6.488-6.485-17.027-6.485-23.516 0l-41.148 41.147c-6.488 6.489-6.488 17.027 0 23.516l35.879 35.88 7.094 7.094 6.098 6.097 29.577 29.578c18.247 18.242 47.637 18.646 65.475.81 17.84-17.839 17.43-47.229-.812-65.476zm-23.053-48.295-12.621 12.62-64.665 64.665-12.665 12.671 6.079 6.079 12.684-12.653 64.735-64.593 12.64-12.608-6.187-6.181z"/><path fill="#D3D3D3" d="m190.084 279.195-3.328-3.329-28.603-28.255.173-.175-5.679-5.679-25.688-25.38-8.367-8.265-2.839 2.835-5.43 5.43-19.907 19.911-3.849 3.85-58.176 58.175 2.835 2.84 2.839 2.835L62.5 332.422l2.835 2.84 2.581 2.581.258.253 31.016 31.016 2.835 2.839 34.389-34.388 5.544-5.545.103.102 6.079-6.079-.097-.103 4.891-4.896 33.823-33.822 3.328-3.325 2.35-2.35-2.351-2.35zm-37.383-25.626 11.353 11.353-22.501 22.498-11.349-11.35 22.497-22.501zm-28.176 28.177 11.353 11.353-22.701 22.501-11.353-11.354 22.701-22.5zm-27.89 16.038-.539.529-11.353-11.353 22.702-22.496 11.353 11.348-5.572 5.523-16.591 16.449zm50.134-50.146-22.497 22.501-11.353-11.354 22.501-22.496 11.349 11.349zm-28.176-28.176 11.354 11.353-22.501 22.497-11.35-11.349 22.497-22.501zm-28.176 28.176 11.354 11.353-22.701 22.502-11.354-11.354 22.701-22.501zm-50.676 50.675 22.501-22.501 11.353 11.354-22.501 22.5-11.353-11.353zm28.175 28.177-11.348-11.35 22.501-22.5 11.348 11.348-22.501 22.502zm5.933 5.932 22.501-22.501 11.354 11.353-22.501 22.502-11.354-11.354zm28.175 28.176-11.349-11.349 22.501-22.502 11.349 11.349-22.501 22.502zm45.31-45.154-16.592 16.448-.538.529-11.353-11.353 22.701-22.497 11.354 11.349-5.572 5.524zm11.046-11.198-11.354-11.353 22.502-22.497 11.348 11.35-22.496 22.5z"/><path fill="#CCE9FF" d="m130.213 276.061 22.5-22.498 11.349 11.35-22.501 22.498zM135.878 293.099 113.177 315.6l-11.353-11.354 22.701-22.5zM180.876 281.746l-22.496 22.5-11.354-11.352 22.502-22.498zM152.906 309.921l-5.572 5.523-16.592 16.449-.538.529-11.352-11.353 22.701-22.497zM90.67 349.255l22.5-22.502 11.35 11.348-22.502 22.502zM73.842 332.427l22.501-22.502 11.354 11.353-22.501 22.502zM112.922 258.771l22.495-22.502 11.355 11.351-22.495 22.503zM96.09 241.974l22.501-22.495 11.348 11.35-22.502 22.496zM118.798 275.812l-5.572 5.524-16.591 16.448-.539.529-11.353-11.352 22.702-22.496zM101.771 258.99l-22.702 22.502-11.353-11.353 22.701-22.501zM56.562 315.146l22.501-22.502 11.349 11.348-22.501 22.502zM39.743 298.307l22.5-22.5 11.352 11.351-22.5 22.501z"/><path fill="#D3D3D3" d="m369.258 99.131-3.328-3.328-28.604-28.255.174-.175-5.679-5.679-25.688-25.38-8.367-8.265-2.839 2.835-5.43 5.43-19.907 19.91-3.849 3.851-58.176 58.176 2.835 2.839 2.839 2.834 28.434 28.434 2.835 2.84 2.581 2.582.258.254 31.016 31.014 2.835 2.84 34.388-34.388 5.545-5.546.103.103 6.079-6.079-.098-.102 4.892-4.896 33.823-33.822 3.328-3.325 2.35-2.35-2.35-2.352zm-37.383-25.625 11.353 11.353-22.501 22.498-11.349-11.349 22.497-22.502zm-28.176 28.176 11.353 11.353-22.701 22.502-11.353-11.354 22.701-22.501zm-27.89 16.04-.539.529-11.353-11.353 22.701-22.497 11.354 11.348-5.572 5.523-16.591 16.45zm50.133-50.148-22.497 22.501-11.353-11.354 22.501-22.497 11.349 11.35zm-28.175-28.176 11.354 11.353-22.502 22.497-11.349-11.349 22.497-22.501zm-28.176 28.176 11.354 11.353-22.701 22.501-11.354-11.353 22.701-22.501zm-50.677 50.677 22.502-22.502 11.353 11.354-22.501 22.5-11.354-11.352zm28.176 28.176-11.348-11.35 22.501-22.501 11.348 11.348-22.501 22.503zm5.932 5.93 22.501-22.5 11.354 11.353-22.502 22.501-11.353-11.354zm28.176 28.177-11.349-11.349 22.501-22.502 11.349 11.35-22.501 22.501zm45.31-45.153-16.592 16.447-.538.529-11.353-11.353 22.701-22.496 11.353 11.349-5.571 5.524zm11.045-11.198L326.2 112.83l22.502-22.497 11.348 11.349-22.497 22.501z"/><path fill="#CCE9FF" d="m309.377 95.993 22.501-22.498 11.348 11.35-22.501 22.497zM315.052 113.034l-22.701 22.502-11.353-11.353 22.701-22.501zM326.188 112.816l22.495-22.503 11.354 11.351-22.495 22.503zM332.079 129.857l-5.571 5.524-16.592 16.447-.538.529-11.353-11.352 22.702-22.496zM269.847 169.187l22.5-22.502 11.35 11.349-22.501 22.5zM253.018 152.352l22.5-22.502 11.354 11.353-22.5 22.502zM292.08 78.71l22.495-22.501L325.93 67.56l-22.495 22.502zM275.273 61.908l22.502-22.497 11.347 11.35-22.503 22.497zM297.972 95.749l-5.573 5.523-16.59 16.45-.539.529-11.353-11.353 22.701-22.497zM280.944 78.927l-22.701 22.501-11.353-11.353 22.701-22.501zM235.743 135.09l22.502-22.503 11.348 11.349-22.502 22.502zM218.91 118.247l22.5-22.5 11.353 11.352-22.5 22.5z"/><path fill="#FFBE55" d="M119.535 106.049a13.15 13.15 0 0 1-13.176 13.176 13.149 13.149 0 0 1-13.175-13.176 13.15 13.15 0 0 1 13.175-13.176 13.15 13.15 0 0 1 13.176 13.176z"/><path fill="#E4E7E7" d="M138.185 70.778c17.027 16.826 15.608 45.405-3.041 64.055-18.648 18.446-47.432 19.865-64.258 3.04l67.299-67.095z"/><path fill="#2A94F4" d="M199.807 166.658c9.122 8.919 9.122 23.716 0 32.838a23.125 23.125 0 0 1-32.838 0c-9.122-8.919-9.122-23.716 0-32.838a23.123 23.123 0 0 1 32.838 0z"/><path fill="#CCE9FF" d="M195.55 170.915c6.689 6.689 6.689 17.635 0 24.324-6.688 6.689-17.636 6.689-24.324 0-6.689-6.689-6.689-17.635 0-24.324 6.688-6.69 17.635-6.69 24.324 0z"/><path fill="#FFBE55" d="m192.915 256.861 6.284 6.284c.404.608 1.013 1.013 1.621 1.622l64.46-64.462c-.607-.404-1.013-1.013-1.621-1.621l-6.284-6.282-64.46 64.459z"/><path fill="#D3D3D3" d="M138.185 70.778c17.027 16.826 15.608 45.405-3.041 64.055-18.648 18.446-47.432 19.865-64.258 3.04l67.299-67.095z"/></svg>