<svg xmlns="http://www.w3.org/2000/svg" width="400" height="400"><path fill="#2A94F4" d="M363.319 127.211H36.682c-9.649 0-17.499 7.848-17.499 17.496v192.484c0 9.648 7.85 17.498 17.499 17.498H363.32c9.648 0 17.498-7.85 17.498-17.498V144.707c-.001-9.648-7.85-17.496-17.499-17.496z"/><path fill="#FFBE55" d="M357.646 308.027v17.498a5.834 5.834 0 0 1-5.832 5.834H48.506a5.834 5.834 0 0 1-5.832-5.834v-17.498l34.837-17.498 139.988 5.832 116.655-5.832 23.492 17.498z"/><path fill="#FCD2B1" d="M50.857 316.08a184.95 184.95 0 0 1 149.303 3.613V109.711a184.95 184.95 0 0 0-154.022-1.586c-2.112.941-3.464 3.078-3.464 5.391v197.232c0 4.215 4.289 6.941 8.183 5.332zm149.303 3.613a184.947 184.947 0 0 1 149.302-3.613c3.895 1.609 8.184-1.117 8.184-5.332V113.516c0-2.312-1.353-4.449-3.464-5.391a184.947 184.947 0 0 0-154.021 1.586v209.982z"/><path fill="#868491" d="M223.49 281.6a5.834 5.834 0 0 1-1.748-11.4 190.66 190.66 0 0 1 18.051-4.709 5.828 5.828 0 0 1 6.903 4.512 5.825 5.825 0 0 1-4.511 6.902 179.861 179.861 0 0 0-16.946 4.426 5.892 5.892 0 0 1-1.749.269z"/><path fill="#0E538C" d="M334.314 281.6a5.86 5.86 0 0 1-1.748-.27c-22.01-6.912-44.823-9.502-67.785-7.672-3.258.232-6.02-2.145-6.275-5.355a5.836 5.836 0 0 1 5.354-6.277c24.504-1.924 48.771.814 72.204 8.174a5.833 5.833 0 0 1-1.75 11.4zm0-23.399a5.83 5.83 0 0 1-1.748-.271c-35.111-11.027-72.215-11.027-107.326 0-3.086.965-6.357-.746-7.314-3.816a5.837 5.837 0 0 1 3.816-7.312c37.401-11.746 76.921-11.746 114.321 0a5.833 5.833 0 0 1-1.749 11.399z"/><path fill="#868491" d="M223.49 234.938a5.834 5.834 0 0 1-1.748-11.4 190.543 190.543 0 0 1 66.188-8.553 5.834 5.834 0 0 1 5.548 6.105c-.147 3.223-2.836 5.684-6.106 5.549a178.724 178.724 0 0 0-62.133 8.029 5.861 5.861 0 0 1-1.749.27z"/><path fill="#0E538C" d="M334.314 234.938a5.86 5.86 0 0 1-1.748-.27 179.7 179.7 0 0 0-22.603-5.518 5.829 5.829 0 0 1-4.728-6.758c.559-3.17 3.589-5.293 6.756-4.73a191.644 191.644 0 0 1 24.072 5.875 5.837 5.837 0 0 1 3.815 7.314 5.829 5.829 0 0 1-5.564 4.087zm0-23.401a5.86 5.86 0 0 1-1.748-.27c-35.111-11.027-72.215-11.027-107.326 0-3.086.959-6.357-.748-7.314-3.816a5.836 5.836 0 0 1 3.816-7.312c37.401-11.746 76.921-11.746 114.321 0a5.835 5.835 0 0 1 3.816 7.312 5.831 5.831 0 0 1-5.565 4.086z"/><path fill="#868491" d="M223.49 188.207a5.834 5.834 0 0 1-1.748-11.4 190.949 190.949 0 0 1 36.107-7.598c3.247-.391 6.089 1.957 6.441 5.152a5.83 5.83 0 0 1-5.154 6.438 179.484 179.484 0 0 0-33.897 7.139 5.957 5.957 0 0 1-1.749.269z"/><path fill="#0E538C" d="M334.314 188.207a5.86 5.86 0 0 1-1.748-.27 178.746 178.746 0 0 0-50.833-8.209 5.832 5.832 0 0 1-5.741-5.924c.051-3.219 2.865-5.93 5.924-5.742a190.57 190.57 0 0 1 54.147 8.744 5.837 5.837 0 0 1 3.816 7.314 5.838 5.838 0 0 1-5.565 4.087z"/><path fill="#868491" d="M223.49 164.943a5.832 5.832 0 0 1-5.564-4.086 5.838 5.838 0 0 1 3.816-7.314c25.415-7.982 51.721-10.547 78.219-7.598a5.83 5.83 0 0 1 5.154 6.439c-.353 3.199-3.178 5.568-6.441 5.152-24.858-2.758-49.574-.363-73.436 7.137a5.85 5.85 0 0 1-1.748.27z"/><path fill="#0E538C" d="M334.314 164.943a5.86 5.86 0 0 1-1.748-.27 177.71 177.71 0 0 0-11.301-3.146 5.835 5.835 0 0 1-4.284-7.049 5.829 5.829 0 0 1 7.052-4.287c4.039.986 8.082 2.113 12.03 3.352a5.838 5.838 0 0 1 3.816 7.314 5.83 5.83 0 0 1-5.565 4.086z"/><path fill="#868491" d="M223.49 141.545a5.835 5.835 0 0 1-1.742-11.401c4.01-1.26 8.055-2.385 12.024-3.35 3.11-.766 6.282 1.158 7.046 4.289a5.835 5.835 0 0 1-4.289 7.047 179.211 179.211 0 0 0-11.296 3.143 5.826 5.826 0 0 1-1.743.272z"/><path fill="#0E538C" d="M334.314 141.545a5.83 5.83 0 0 1-1.748-.271c-23.867-7.498-48.571-9.891-73.436-7.137-3.223.393-6.088-1.957-6.441-5.152a5.833 5.833 0 0 1 5.154-6.439c26.487-2.947 52.797-.383 78.22 7.6a5.838 5.838 0 0 1 3.815 7.314 5.832 5.832 0 0 1-5.564 4.085zM66.005 281.6a5.835 5.835 0 0 1-5.565-4.086 5.84 5.84 0 0 1 3.816-7.314 190.74 190.74 0 0 1 18.051-4.709 5.826 5.826 0 0 1 6.904 4.512 5.827 5.827 0 0 1-4.512 6.902 179.841 179.841 0 0 0-16.945 4.426 5.902 5.902 0 0 1-1.749.269zm110.823-23.399a5.825 5.825 0 0 1-1.748-.271c-35.111-11.027-72.215-11.027-107.326 0-3.099.965-6.357-.746-7.313-3.816a5.836 5.836 0 0 1 3.815-7.312c37.401-11.746 76.921-11.746 114.321 0a5.833 5.833 0 0 1-1.749 11.399zM66.005 234.938a5.835 5.835 0 0 1-1.749-11.4 190.595 190.595 0 0 1 66.188-8.553 5.836 5.836 0 0 1 5.548 6.105c-.154 3.223-2.871 5.684-6.105 5.549a178.717 178.717 0 0 0-62.135 8.029c-.58.182-1.172.27-1.747.27zm110.823 0a5.855 5.855 0 0 1-1.748-.27 179.727 179.727 0 0 0-22.602-5.518 5.829 5.829 0 0 1-4.729-6.758c.553-3.17 3.595-5.293 6.756-4.73a191.644 191.644 0 0 1 24.072 5.875 5.838 5.838 0 0 1 3.816 7.314 5.83 5.83 0 0 1-5.565 4.087z"/><path fill="#FFE3CA" d="m200.16 109.711 122.486-64.4v221.203L200.16 319.693z"/><path fill="#0E538C" d="m289.934 100.342-69.816 33.207a5.522 5.522 0 0 1-7.358-2.615 5.52 5.52 0 0 1 2.614-7.357l69.816-33.209a5.524 5.524 0 0 1 7.358 2.615 5.52 5.52 0 0 1-2.614 7.359zM289.934 129.928l-69.816 33.207a5.522 5.522 0 0 1-7.358-2.615 5.52 5.52 0 0 1 2.614-7.357l69.816-33.209a5.522 5.522 0 0 1 7.358 2.615 5.52 5.52 0 0 1-2.614 7.359zM289.934 159.514l-69.816 33.207a5.522 5.522 0 0 1-7.358-2.615 5.52 5.52 0 0 1 2.614-7.357l69.816-33.209a5.522 5.522 0 0 1 7.358 2.615 5.52 5.52 0 0 1-2.614 7.359zM289.934 189.1l-69.816 33.207a5.522 5.522 0 0 1-7.358-2.615 5.52 5.52 0 0 1 2.614-7.357l69.816-33.209a5.522 5.522 0 0 1 7.358 2.615 5.52 5.52 0 0 1-2.614 7.359zM289.934 218.686l-69.816 33.207a5.522 5.522 0 0 1-7.358-2.615 5.52 5.52 0 0 1 2.614-7.357l69.816-33.209a5.522 5.522 0 0 1 7.358 2.615 5.52 5.52 0 0 1-2.614 7.359zM289.934 248.271l-69.816 33.207a5.522 5.522 0 0 1-7.358-2.615 5.52 5.52 0 0 1 2.614-7.357l69.816-33.209a5.522 5.522 0 0 1 7.358 2.615 5.52 5.52 0 0 1-2.614 7.359zM189.799 331.359h22.424v22.977h-22.424z"/><path fill="#F7F7F7" d="M190.303 126.314v76.926c-21.295-10.025-43.711-18.846-66.729-18.848-21.6-.002-42.662 8.057-62.804 17.039-2.415 1.078-3.959.881-3.959 2.275v-74.281c0-1.395 1.545-3.844 3.959-4.918 20.142-8.984 41.204-17.043 62.804-17.041 23.017.003 45.433 8.825 66.729 18.848z"/><path fill="#FCD2B1" d="m79.088 154.621 1.399-1.027a8.808 8.808 0 0 0 2.596 2.686l-1.805 1.324a1.851 1.851 0 1 1-2.19-2.983z"/><path fill="#F1E34E" d="m80.487 153.594 1.627-1.193a1.853 1.853 0 0 1 2.267.057c.002.004.005.004.006.006.071.061.139.123.201.193a1.85 1.85 0 0 1-.284 2.727l-1.221.896a8.82 8.82 0 0 1-2.596-2.686z"/><path fill="#FCD2B1" d="m77.745 145.541.361.055 1.645.252a8.879 8.879 0 0 0-.56 3.66l-1.647-.254-.361-.055a1.846 1.846 0 0 1-1.548-2.109 1.85 1.85 0 0 1 2.11-1.549z"/><path fill="#FCD2B1" d="m77.544 149.254 1.648.254h-.001z"/><path fill="#F1E34E" d="m79.751 145.848 1.704.262a1.85 1.85 0 0 1 1.548 2.111v.002a1.85 1.85 0 0 1-2.11 1.547h-.001l-1.702-.262a8.708 8.708 0 0 1 .086-1.859 9.013 9.013 0 0 1 .475-1.801zm5.747-5.291.896 1.221a1.851 1.851 0 0 1-.797 2.811c-.001.002-.005.002-.007.004a1.853 1.853 0 0 1-2.181-.623l-1.194-1.629a8.802 8.802 0 0 1 3.283-1.784z"/><path fill="#FCD2B1" d="m109.302 158.02 1.027 1.4a1.85 1.85 0 0 1-2.984 2.19l-1.324-1.805a8.79 8.79 0 0 0 3.281-1.785z"/><path fill="#F1E34E" d="M105.521 155.994c.052-.037.104-.072.158-.104.001 0 .004 0 .007-.002.07-.043.145-.08.219-.111.002 0 .003 0 .004-.002a1.856 1.856 0 0 1 2.2.617l1.193 1.627a8.776 8.776 0 0 1-3.281 1.785l-.897-1.223a1.853 1.853 0 0 1 .397-2.587zm5.102-5.404 1.704.262a8.797 8.797 0 0 1-.559 3.66l-1.706-.262a1.852 1.852 0 0 1 .561-3.66z"/><path fill="#FCD2B1" d="m88.155 157.885 3.658.561.001.002-.247 1.613-.092.59a1.85 1.85 0 1 1-3.658-.56l.091-.592.247-1.614z"/><path fill="#F1E34E" d="M90.498 154.828a1.854 1.854 0 0 1 1.548 2.113l-.232 1.504-3.658-.561.232-1.508a1.853 1.853 0 0 1 2.11-1.548zm.319-14.279 3.659.561-.23 1.508a1.852 1.852 0 0 1-2.11 1.549 1.853 1.853 0 0 1-1.548-2.111l.229-1.507z"/><path fill="#FCD2B1" d="m97.042 159.25 3.659.562-.249 1.613-.091.59a1.845 1.845 0 0 1-2.11 1.547 1.848 1.848 0 0 1-1.548-2.107l.091-.592.248-1.613z"/><path fill="#F1E34E" d="M99.383 156.195a1.848 1.848 0 0 1 1.548 2.107l-.231 1.51-3.659-.562.232-1.508a1.847 1.847 0 0 1 2.11-1.547zm.322-14.283 3.659.561-.232 1.51a1.85 1.85 0 1 1-3.658-.562l.231-1.509zm7.508 3.065 1.223-.896a8.758 8.758 0 0 1 2.595 2.686l-1.628 1.195a1.855 1.855 0 0 1-2.466-.25 1.85 1.85 0 0 1 .276-2.735z"/><path fill="#EFBE3B" d="m79.751 145.848 1.704.262a1.85 1.85 0 0 1 1.548 2.111 1.848 1.848 0 0 1-2.11 1.549l-1.702-.262a8.708 8.708 0 0 1 .086-1.859 8.945 8.945 0 0 1 .474-1.801z"/><path fill="#FCD2B1" d="M81.585 138.354a1.851 1.851 0 0 1 2.588.396l1.324 1.807a8.85 8.85 0 0 0-3.283 1.783l-1.026-1.398a1.85 1.85 0 0 1 .397-2.588z"/><path fill="#EFBE3B" d="m85.498 140.557.896 1.221a1.851 1.851 0 0 1-.797 2.811c-.001.002-.005.002-.007.004a1.853 1.853 0 0 1-2.181-.623l-1.194-1.629a8.802 8.802 0 0 1 3.283-1.784z"/><path fill="#FCD2B1" d="M93.266 136.795a1.853 1.853 0 0 1 1.549 2.111l-.09.592-.248 1.611h-.001l-3.659-.561.248-1.615.091-.59a1.852 1.852 0 0 1 2.11-1.548z"/><path fill="#EFBE3B" d="m90.817 140.549 3.659.561h.001l-.231 1.508a1.852 1.852 0 0 1-2.11 1.549 1.853 1.853 0 0 1-1.548-2.111l.229-1.507z"/><path fill="#FCD2B1" d="M102.152 138.16a1.851 1.851 0 0 1 1.548 2.109l-.09.592-.246 1.611-3.659-.561.247-1.613.091-.59a1.85 1.85 0 0 1 2.109-1.548z"/><path fill="#EFBE3B" d="m99.705 141.912 3.659.561-.232 1.51a1.85 1.85 0 1 1-3.658-.562l.231-1.509z"/><path fill="#FCD2B1" d="m108.436 144.08 1.806-1.326a1.85 1.85 0 0 1 2.189 2.984l-1.4 1.027a8.766 8.766 0 0 0-2.595-2.685z"/><path fill="#EFBE3B" d="m107.213 144.977 1.223-.896a8.758 8.758 0 0 1 2.595 2.686l-1.628 1.195a1.855 1.855 0 0 1-2.466-.25 1.85 1.85 0 0 1 .276-2.735z"/><path fill="#FCD2B1" d="m112.327 150.852 2.009.309a1.85 1.85 0 1 1-.562 3.658l-.363-.055-1.643-.252a8.78 8.78 0 0 0 .559-3.66z"/><path fill="#EFBE3B" d="m110.623 150.59 1.704.262a8.797 8.797 0 0 1-.559 3.66l-1.706-.262a1.852 1.852 0 0 1 .561-3.66zm-5.102 5.404c.052-.037.104-.072.158-.104.001 0 .004 0 .007-.002.07-.043.145-.08.219-.111.002 0 .003 0 .004-.002a1.856 1.856 0 0 1 2.2.617l1.193 1.627a8.776 8.776 0 0 1-3.281 1.785l-.897-1.223a1.853 1.853 0 0 1 .397-2.587zm-6.138.201a1.848 1.848 0 0 1 1.548 2.107l-.231 1.51-3.659-.562.232-1.508a1.847 1.847 0 0 1 2.11-1.547zm-8.885-1.367a1.854 1.854 0 0 1 1.548 2.113l-.231 1.506-.001-.002-3.658-.561.232-1.508a1.853 1.853 0 0 1 2.11-1.548zm-10.011-1.234 1.627-1.193a1.853 1.853 0 0 1 2.267.057c.002.004.005.004.006.006.071.061.139.123.201.193a1.85 1.85 0 0 1-.284 2.727l-1.221.896a8.82 8.82 0 0 1-2.596-2.686z"/><path fill="#FFBE55" d="M85.498 140.557a8.684 8.684 0 0 1 3.78-.244l1.54.236 3.659.561h.001l5.228.803 3.659.561 1.539.238a8.758 8.758 0 0 1 6.128 4.055 8.756 8.756 0 0 1 1.211 5.945 8.732 8.732 0 0 1-2.939 5.309 8.776 8.776 0 0 1-3.281 1.785 8.723 8.723 0 0 1-3.782.244l-1.539-.236-3.659-.562-5.228-.803-.001-.002-5.198-.797a8.73 8.73 0 0 1-3.532-1.369 8.797 8.797 0 0 1-2.596-2.686 8.738 8.738 0 0 1-1.296-4.086h.001a8.814 8.814 0 0 1 .56-3.66 8.79 8.79 0 0 1 5.745-5.292z"/><path fill="#FFE3CA" d="M104.327 146.457a4.987 4.987 0 0 1 4.167 5.68 4.989 4.989 0 0 1-5.679 4.168l-15.625-2.4a4.987 4.987 0 0 1-4.167-5.68 4.988 4.988 0 0 1 5.68-4.168l15.624 2.4z"/><g fill="#FFBE55"><circle cx="103.656" cy="149.475" r=".815"/><circle cx="99.537" cy="153.506" r=".815"/><circle cx="95.68" cy="148.249" r=".815"/></g><path fill="#FCD2B1" d="m132.437 142.033 2.207.34a11.321 11.321 0 0 0-.081 4.807l-2.85-.438a2.382 2.382 0 1 1 .724-4.709z"/><path fill="#F1E34E" d="m134.644 142.373 2.567.395a2.384 2.384 0 0 1 2.011 2.115l.001.012a2.36 2.36 0 0 1-.017.587 2.384 2.384 0 0 1-2.717 1.994l-1.926-.297a11.317 11.317 0 0 1 .081-4.806z"/><path fill="#FCD2B1" d="m139.478 132.549.278.379 1.267 1.727c-.716.32-1.409.723-2.069 1.207a11.155 11.155 0 0 0-1.77 1.613l-1.27-1.729-.277-.381a2.378 2.378 0 0 1 .511-3.33 2.384 2.384 0 0 1 3.33.514z"/><path fill="#F1E34E" d="m135.915 135.746 1.269 1.729h-.002z"/><path fill="#F1E34E" d="m141.023 134.654 1.312 1.789a2.38 2.38 0 0 1-.511 3.33l-.001.002a2.383 2.383 0 0 1-3.33-.512v-.002l-1.311-1.787a11.155 11.155 0 0 1 1.77-1.613 11.43 11.43 0 0 1 2.071-1.207zm10.048.412-.297 1.93a2.383 2.383 0 0 1-3.284 1.832c-.001 0-.006-.004-.01-.004a2.384 2.384 0 0 1-1.417-2.553l.394-2.568c1.608.119 3.184.58 4.614 1.363z"/><path fill="#FCD2B1" d="m156.841 172.627-.338 2.207a2.383 2.383 0 1 1-4.709-.723l.438-2.848a11.315 11.315 0 0 0 4.609 1.364z"/><path fill="#F1E34E" d="M155.242 167.34c.082.016.161.029.24.051l.008.004c.103.025.204.061.299.098l.006.004a2.382 2.382 0 0 1 1.44 2.562l-.395 2.568a11.334 11.334 0 0 1-4.61-1.363l.297-1.928a2.384 2.384 0 0 1 2.715-1.996zm9.563-.274 1.312 1.789a11.206 11.206 0 0 1-1.771 1.613c-.66.484-1.353.887-2.069 1.207l-1.314-1.791a2.384 2.384 0 0 1 .511-3.33 2.387 2.387 0 0 1 3.331.512z"/><path fill="#FCD2B1" d="m137.717 153.256 2.818 3.842-1.692 1.242-.622.455a2.381 2.381 0 1 1-2.819-3.84l.62-.457 1.695-1.242z"/><path fill="#F1E34E" d="M142.63 152.607a2.383 2.383 0 0 1-.512 3.33l-1.583 1.16-2.818-3.842 1.583-1.158a2.38 2.38 0 0 1 3.33.51zm13.289-12.707 2.818 3.842-1.581 1.162a2.382 2.382 0 1 1-2.819-3.842l1.582-1.162z"/><path fill="#FCD2B1" d="m144.562 162.588 2.818 3.842-1.694 1.24-.619.455a2.383 2.383 0 0 1-2.82-3.842l.62-.455 1.695-1.24z"/><path fill="#F1E34E" d="M149.476 161.938a2.384 2.384 0 0 1-.512 3.33l-1.583 1.162-2.818-3.842 1.583-1.162a2.378 2.378 0 0 1 3.33.512zm13.29-12.708 2.818 3.842-1.583 1.162a2.383 2.383 0 0 1-2.819-3.842l1.584-1.162zm4.045 9.624 1.93.297a11.32 11.32 0 0 1-.083 4.807l-2.57-.395a2.384 2.384 0 0 1-1.992-2.715 2.38 2.38 0 0 1 2.715-1.994z"/><path fill="#EFBE3B" d="m141.023 134.654 1.312 1.789a2.38 2.38 0 0 1-.511 3.33 2.38 2.38 0 0 1-3.33-.512l-1.311-1.787a11.388 11.388 0 0 1 3.84-2.82z"/><path fill="#FCD2B1" d="M149.514 129.502a2.38 2.38 0 0 1 1.994 2.717l-.437 2.848a11.356 11.356 0 0 0-4.614-1.363l.34-2.209a2.38 2.38 0 0 1 2.717-1.993z"/><path fill="#EFBE3B" d="m151.071 135.066-.297 1.93a2.383 2.383 0 0 1-3.284 1.832c-.001 0-.006-.004-.01-.004a2.384 2.384 0 0 1-1.417-2.553l.394-2.568c1.608.119 3.184.58 4.614 1.363z"/><path fill="#FCD2B1" d="M161.562 138.715a2.382 2.382 0 0 1-.511 3.33l-.619.457-1.692 1.24h-.003l-2.818-3.842 1.694-1.242.62-.455a2.38 2.38 0 0 1 3.329.512z"/><path fill="#EFBE3B" d="m155.919 139.9 2.818 3.842h.003l-1.584 1.162a2.382 2.382 0 1 1-2.819-3.842l1.582-1.162z"/><path fill="#FCD2B1" d="M168.408 148.045a2.383 2.383 0 0 1-.511 3.33l-.621.453-1.692 1.244-2.818-3.842 1.692-1.244.62-.455a2.386 2.386 0 0 1 3.33.514z"/><path fill="#EFBE3B" d="m162.766 149.23 2.818 3.842-1.583 1.162a2.383 2.383 0 0 1-2.819-3.842l1.584-1.162z"/><path fill="#FCD2B1" d="m168.741 159.15 2.849.436a2.384 2.384 0 0 1 1.991 2.719 2.38 2.38 0 0 1-2.715 1.99l-2.208-.338c.367-1.566.403-3.209.083-4.807z"/><path fill="#EFBE3B" d="m166.811 158.854 1.93.297a11.32 11.32 0 0 1-.083 4.807l-2.57-.395a2.384 2.384 0 0 1-1.992-2.715 2.38 2.38 0 0 1 2.715-1.994z"/><path fill="#FCD2B1" d="m166.118 168.855 1.546 2.109a2.38 2.38 0 0 1-.511 3.328 2.385 2.385 0 0 1-3.33-.51l-.28-.383-1.266-1.725c.717-.32 1.41-.723 2.069-1.207a11.117 11.117 0 0 0 1.772-1.612z"/><path fill="#EFBE3B" d="m164.805 167.066 1.312 1.789a11.206 11.206 0 0 1-1.771 1.613c-.66.484-1.353.887-2.069 1.207l-1.314-1.791a2.384 2.384 0 0 1 .511-3.33 2.387 2.387 0 0 1 3.331.512zm-9.563.274c.082.016.161.029.24.051l.008.004c.103.025.204.061.299.098l.006.004a2.382 2.382 0 0 1 1.44 2.562l-.395 2.568a11.334 11.334 0 0 1-4.61-1.363l.297-1.928a2.384 2.384 0 0 1 2.715-1.996zm-5.766-5.402a2.384 2.384 0 0 1-.512 3.33l-1.583 1.162-2.818-3.842 1.583-1.162a2.378 2.378 0 0 1 3.33.512zm-6.846-9.331a2.383 2.383 0 0 1-.512 3.33l-1.583 1.16-2.818-3.842 1.583-1.158a2.38 2.38 0 0 1 3.33.51zm-7.986-10.234 2.567.395a2.384 2.384 0 0 1 2.011 2.115l.001.012a2.36 2.36 0 0 1-.017.587 2.384 2.384 0 0 1-2.717 1.994l-1.926-.297a11.317 11.317 0 0 1 .081-4.806z"/><path fill="#FFBE55" d="M151.071 135.066c1.4.768 2.656 1.848 3.662 3.219l1.186 1.615 2.818 3.842h.003l4.026 5.488 2.818 3.842 1.186 1.615a11.268 11.268 0 0 1 1.887 9.27 11.271 11.271 0 0 1-4.311 6.511 11.249 11.249 0 0 1-7.506 2.158 11.334 11.334 0 0 1-4.61-1.363 11.228 11.228 0 0 1-3.664-3.219l-1.187-1.615-2.818-3.842-4.027-5.49-4.004-5.457a11.24 11.24 0 0 1-1.968-4.461 11.322 11.322 0 0 1 .081-4.807 11.226 11.226 0 0 1 2.539-4.898h.002a11.155 11.155 0 0 1 1.77-1.613 11.24 11.24 0 0 1 7.503-2.158c1.608.119 3.184.58 4.614 1.363z"/><path fill="#FFE3CA" d="M162.836 157.574a6.419 6.419 0 0 1-1.376 8.963c-2.85 2.092-6.869 1.473-8.961-1.377l-12.037-16.406a6.419 6.419 0 0 1 1.376-8.961 6.415 6.415 0 0 1 8.961 1.377l12.037 16.404z"/><g fill="#FFBE55"><circle cx="159.479" cy="159.708" r="1.049"/><circle cx="152.062" cy="159.632" r="1.049"/><circle cx="153.336" cy="151.335" r="1.049"/></g></svg>