<svg xmlns="http://www.w3.org/2000/svg" width="400" height="400"><path fill="#D3D3D3" d="M359.408 170.405c-7.543 0-13.658 6.114-13.658 13.657v2.279h-52.387v-2.279c0-7.543-6.116-13.657-13.659-13.657-7.542 0-13.657 6.114-13.657 13.657v2.279h-52.389v-52.387h2.28c7.543 0 13.658-6.116 13.658-13.657 0-7.544-6.115-13.66-13.658-13.66h-2.28V54.25h2.28c7.543 0 13.658-6.115 13.658-13.657 0-7.543-6.115-13.658-13.658-13.658h-31.876c-7.543 0-13.658 6.115-13.658 13.658 0 7.542 6.115 13.657 13.658 13.657h2.28v52.388h-2.28c-7.543 0-13.658 6.115-13.658 13.658 0 7.542 6.115 13.659 13.658 13.659h2.28v52.387h-52.388v-2.279c0-7.543-6.115-13.658-13.659-13.658-7.542 0-13.657 6.115-13.657 13.658v2.279H54.251v-2.279c0-7.543-6.116-13.658-13.658-13.658s-13.658 6.115-13.658 13.658v31.876c0 7.543 6.116 13.657 13.658 13.657s13.658-6.114 13.658-13.657v-2.279h52.388v2.279c0 7.543 6.115 13.657 13.657 13.657 7.543 0 13.659-6.114 13.659-13.657v-2.279h52.388v52.388h-2.28c-7.542 0-13.658 6.113-13.658 13.657 0 7.543 6.116 13.657 13.658 13.657h2.28v52.389h-2.28c-7.542 0-13.658 6.115-13.658 13.658 0 7.542 6.116 13.657 13.658 13.657h31.876c7.543 0 13.658-6.115 13.658-13.657 0-7.543-6.115-13.658-13.658-13.658h-2.28v-52.389h2.28c7.543 0 13.658-6.114 13.658-13.657 0-7.544-6.115-13.657-13.658-13.657h-2.28V213.66h52.389v2.279c0 7.543 6.115 13.657 13.657 13.657 7.543 0 13.659-6.114 13.659-13.657v-2.279h52.387v2.279c0 7.543 6.115 13.657 13.658 13.657s13.657-6.114 13.657-13.657v-31.876c-.001-7.543-6.115-13.658-13.658-13.658z"/><path fill="#2A94F4" d="M359.408 152.235c-61.561 0-111.644-50.082-111.644-111.643 0-7.543 6.114-13.658 13.658-13.658 7.543 0 13.66 6.115 13.66 13.658 0 46.497 37.828 84.328 84.325 84.328 7.543 0 13.657 6.115 13.657 13.657.001 7.544-6.113 13.658-13.656 13.658z"/><path fill="#FFBE55" d="M138.578 373.065c-7.543 0-13.658-6.115-13.658-13.657 0-46.498-37.829-84.326-84.328-84.326-7.542 0-13.658-6.117-13.658-13.659 0-7.543 6.116-13.658 13.658-13.658 61.561 0 111.643 50.083 111.643 111.644.001 7.541-6.113 13.656-13.657 13.656z"/></svg>